<?xml version="1.1" encoding="UTF-8" standalone="no"?><svg width="330px" height="330px" version="1.1" xmlns="http://www.w3.org/2000/svg" viewBox="0 0 330 330" style="border: 0px solid #787878;" shape-rendering="auto"><defs>  <linearGradient id="gradientColors" x1="0%" y1="0%" x2="0%" y2="100%" gradientUnits="userSpaceOnUse">  <stop offset="0%" style="stop-color:rgb(255,0,0);stop-opacity:1" />  <stop offset="100%" style="stop-color:rgb(255,255,0);stop-opacity:1" />  </linearGradient></defs><g fill="url(#gradientColors)"><path d="M 125 45 m 5,0 a 5,5 0 1,0 -10, 0 L 120,50 L 130,50" style="stroke-width: 0px;" /><path d="M 145 45 m 5,0 a 5,5 0 1,0 -10, 0 L 140,50 L 150,50" style="stroke-width: 0px;" /><path d="M 170,50 L 170,40 Q 160,40 160,50" style="stroke-width: 0px;" /><path d="M 170,50 L 180,50 Q 180,40 170,40" style="stroke-width: 0px;" /><circle cx="195" cy="45" r="5" width="10" height="10" style="stroke-width: 0px;" /><path d="M 130,50 L 120,50 Q 120,60 130,60" style="stroke-width: 0px;" /><rect x='130' y='50' width='10' height='10' style='stroke-width: 0px;' /><path d="M 140,50 L 140,60 Q 150,60 150,50" style="stroke-width: 0px;" /><rect x='160' y='50' width='10' height='10' style='stroke-width: 0px;' /><path d="M 170,50 L 170,60 Q 180,60 180,50" style="stroke-width: 0px;" /><circle cx="205" cy="55" r="5" width="10" height="10" style="stroke-width: 0px;" /><rect x='130' y='60' width='10' height='10' style='stroke-width: 0px;' /><path d="M 160,70 L 160,60 Q 150,60 150,70" style="stroke-width: 0px;" /><rect x='160' y='60' width='10' height='10' style='stroke-width: 0px;' /><path d="M 125 75 m 0,-5 a 5,5 0 1,0 0,10 L 130,80 L 130,70" style="stroke-width: 0px;" /><rect x='130' y='70' width='10' height='10' style='stroke-width: 0px;' /><rect x='150' y='70' width='10' height='10' style='stroke-width: 0px;' /><rect x='160' y='70' width='10' height='10' style='stroke-width: 0px;' /><path d="M 190,80 L 190,70 Q 180,70 180,80" style="stroke-width: 0px;" /><path d="M 190,80 L 200,80 Q 200,70 190,70" style="stroke-width: 0px;" /><rect x='130' y='80' width='10' height='10' style='stroke-width: 0px;' /><rect x='150' y='80' width='10' height='10' style='stroke-width: 0px;' /><path d="M 160,80 L 160,90 Q 170,90 170,80" style="stroke-width: 0px;" /><path d="M 190,80 L 180,80 Q 180,90 190,90" style="stroke-width: 0px;" /><rect x='190' y='80' width='10' height='10' style='stroke-width: 0px;' /><path d="M 205 85 m 0,5 a 5,5 0 1,0 0,-10 L 200,80 L 200,90 L 210,90" style="stroke-width: 0px;" /><path d="M 135 95 m -5, 0 a 5,5 0 1,0 10, 0 L 140,90 L 130,90" style="stroke-width: 0px;" /><path d="M 155 95 m -5, 0 a 5,5 0 1,0 10, 0 L 160,90 L 150,90" style="stroke-width: 0px;" /><circle cx="175" cy="95" r="5" width="10" height="10" style="stroke-width: 0px;" /><path d="M 125 105 m 5,0 a 5,5 0 1,0 -10, 0 L 120,110 L 130,110" style="stroke-width: 0px;" /><circle cx="145" cy="105" r="5" width="10" height="10" style="stroke-width: 0px;" /><path d="M 165 105 m 5,0 a 5,5 0 1,0 -10, 0 L 160,110 L 170,110" style="stroke-width: 0px;" /><circle cx="185" cy="105" r="5" width="10" height="10" style="stroke-width: 0px;" /><path d="M 205 105 m 5,0 a 5,5 0 1,0 -10, 0 L 200,110 L 210,110" style="stroke-width: 0px;" /><path d="M 125 115 m -5, 0 a 5,5 0 1,0 10, 0 L 130,110 L 120,110" style="stroke-width: 0px;" /><path d="M 155 115 m 0,-5 a 5,5 0 1,0 0,10 L 160,120 L 160,110" style="stroke-width: 0px;" /><path d="M 160,110 L 160,120 Q 170,120 170,110" style="stroke-width: 0px;" /><rect x='200' y='110' width='10' height='10' style='stroke-width: 0px;' /><circle cx="45" cy="125" r="5" width="10" height="10" style="stroke-width: 0px;" /><path d="M 65 125 m 0,-5 a 5,5 0 1,0 0,10 L 70,130 L 70,120" style="stroke-width: 0px;" /><path d="M 70,130 L 80,130 Q 80,120 70,120" style="stroke-width: 0px;" /><path d="M 95 125 m 0,-5 a 5,5 0 1,0 0,10 L 100,130 L 100,120" style="stroke-width: 0px;" /><rect x='100' y='120' width='10' height='10' style='stroke-width: 0px;' /><path d="M 110,130 L 120,130 Q 120,120 110,120" style="stroke-width: 0px;" /><path d="M 175 125 m 5,0 a 5,5 0 1,0 -10, 0 L 170,130 L 180,130" style="stroke-width: 0px;" /><path d="M 195 125 m 0,-5 a 5,5 0 1,0 0,10 L 200,130 L 200,120" style="stroke-width: 0px;" /><rect x='200' y='120' width='10' height='10' style='stroke-width: 0px;' /><circle cx="225" cy="125" r="5" width="10" height="10" style="stroke-width: 0px;" /><circle cx="255" cy="125" r="5" width="10" height="10" style="stroke-width: 0px;" /><path d="M 280,130 L 280,120 Q 270,120 270,130" style="stroke-width: 0px;" /><path d="M 285 125 m 0,5 a 5,5 0 1,0 0,-10 L 280,120 L 280,130 L 290,130" style="stroke-width: 0px;" /><circle cx="55" cy="135" r="5" width="10" height="10" style="stroke-width: 0px;" /><rect x='70' y='130' width='10' height='10' style='stroke-width: 0px;' /><path d="M 115 135 m -5, 0 a 5,5 0 1,0 10, 0 L 120,130 L 110,130" style="stroke-width: 0px;" /><circle cx="145" cy="135" r="5" width="10" height="10" style="stroke-width: 0px;" /><path d="M 165 135 m 0,-5 a 5,5 0 1,0 0,10 L 170,140 L 170,130" style="stroke-width: 0px;" /><rect x='170' y='130' width='10' height='10' style='stroke-width: 0px;' /><path d="M 185 135 m 0,5 a 5,5 0 1,0 0,-10 L 180,130 L 180,140 L 190,140" style="stroke-width: 0px;" /><path d="M 210,130 L 200,130 Q 200,140 210,140" style="stroke-width: 0px;" /><path d="M 210,140 L 220,140 Q 220,130 210,130" style="stroke-width: 0px;" /><path d="M 235 135 m 5,0 a 5,5 0 1,0 -10, 0 L 230,140 L 240,140" style="stroke-width: 0px;" /><path d="M 275 135 m -5, 0 a 5,5 0 1,0 10, 0 L 280,130 L 270,130" style="stroke-width: 0px;" /><circle cx="45" cy="145" r="5" width="10" height="10" style="stroke-width: 0px;" /><path d="M 80,140 L 70,140 Q 70,150 80,150" style="stroke-width: 0px;" /><path d="M 80,150 L 90,150 Q 90,140 80,140" style="stroke-width: 0px;" /><circle cx="105" cy="145" r="5" width="10" height="10" style="stroke-width: 0px;" /><path d="M 125 145 m 5,0 a 5,5 0 1,0 -10, 0 L 120,150 L 130,150" style="stroke-width: 0px;" /><path d="M 175 145 m -5, 0 a 5,5 0 1,0 10, 0 L 180,140 L 170,140" style="stroke-width: 0px;" /><path d="M 215 145 m -5, 0 a 5,5 0 1,0 10, 0 L 220,140 L 210,140" style="stroke-width: 0px;" /><rect x='230' y='140' width='10' height='10' style='stroke-width: 0px;' /><path d="M 245 145 m 0,5 a 5,5 0 1,0 0,-10 L 240,140 L 240,150 L 250,150" style="stroke-width: 0px;" /><path d="M 60,160 L 60,150 Q 50,150 50,160" style="stroke-width: 0px;" /><path d="M 65 155 m 0,5 a 5,5 0 1,0 0,-10 L 60,150 L 60,160 L 70,160" style="stroke-width: 0px;" /><rect x='80' y='150' width='10' height='10' style='stroke-width: 0px;' /><path d="M 130,150 L 120,150 Q 120,160 130,160" style="stroke-width: 0px;" /><rect x='130' y='150' width='10' height='10' style='stroke-width: 0px;' /><rect x='140' y='150' width='10' height='10' style='stroke-width: 0px;' /><path d="M 155 155 m 0,5 a 5,5 0 1,0 0,-10 L 150,150 L 150,160 L 160,160" style="stroke-width: 0px;" /><circle cx="195" cy="155" r="5" width="10" height="10" style="stroke-width: 0px;" /><path d="M 230,160 L 230,150 Q 220,150 220,160" style="stroke-width: 0px;" /><rect x='230' y='150' width='10' height='10' style='stroke-width: 0px;' /><path d="M 255 155 m 0,-5 a 5,5 0 1,0 0,10 L 260,160 L 260,150" style="stroke-width: 0px;" /><path d="M 260,160 L 270,160 Q 270,150 260,150" style="stroke-width: 0px;" /><path d="M 45 165 m 0,-5 a 5,5 0 1,0 0,10 L 50,170 L 50,160" style="stroke-width: 0px;" /><path d="M 50,160 L 50,170 Q 60,170 60,160" style="stroke-width: 0px;" /><path d="M 75 165 m 0,-5 a 5,5 0 1,0 0,10 L 80,170 L 80,160" style="stroke-width: 0px;" /><rect x='80' y='160' width='10' height='10' style='stroke-width: 0px;' /><rect x='90' y='160' width='10' height='10' style='stroke-width: 0px;' /><rect x='100' y='160' width='10' height='10' style='stroke-width: 0px;' /><path d="M 115 165 m 0,5 a 5,5 0 1,0 0,-10 L 110,160 L 110,170 L 120,170" style="stroke-width: 0px;" /><path d="M 145 165 m -5, 0 a 5,5 0 1,0 10, 0 L 150,160 L 140,160" style="stroke-width: 0px;" /><path d="M 165 165 m 5,0 a 5,5 0 1,0 -10, 0 L 160,170 L 170,170" style="stroke-width: 0px;" /><path d="M 185 165 m 5,0 a 5,5 0 1,0 -10, 0 L 180,170 L 190,170" style="stroke-width: 0px;" /><path d="M 215 165 m 0,-5 a 5,5 0 1,0 0,10 L 220,170 L 220,160" style="stroke-width: 0px;" /><rect x='220' y='160' width='10' height='10' style='stroke-width: 0px;' /><rect x='230' y='160' width='10' height='10' style='stroke-width: 0px;' /><path d="M 240,170 L 250,170 Q 250,160 240,160" style="stroke-width: 0px;" /><path d="M 270,160 L 260,160 Q 260,170 270,170" style="stroke-width: 0px;" /><rect x='270' y='160' width='10' height='10' style='stroke-width: 0px;' /><path d="M 280,170 L 290,170 Q 290,160 280,160" style="stroke-width: 0px;" /><circle cx="65" cy="175" r="5" width="10" height="10" style="stroke-width: 0px;" /><rect x='90' y='170' width='10' height='10' style='stroke-width: 0px;' /><circle cx="125" cy="175" r="5" width="10" height="10" style="stroke-width: 0px;" /><path d="M 160,180 L 160,170 Q 150,170 150,180" style="stroke-width: 0px;" /><path d="M 160,170 L 160,180 Q 170,180 170,170" style="stroke-width: 0px;" /><path d="M 190,170 L 180,170 Q 180,180 190,180" style="stroke-width: 0px;" /><path d="M 195 175 m 0,5 a 5,5 0 1,0 0,-10 L 190,170 L 190,180 L 200,180" style="stroke-width: 0px;" /><path d="M 230,170 L 220,170 Q 220,180 230,180" style="stroke-width: 0px;" /><rect x='230' y='170' width='10' height='10' style='stroke-width: 0px;' /><rect x='240' y='170' width='10' height='10' style='stroke-width: 0px;' /><path d="M 285 175 m -5, 0 a 5,5 0 1,0 10, 0 L 290,170 L 280,170" style="stroke-width: 0px;" /><circle cx="55" cy="185" r="5" width="10" height="10" style="stroke-width: 0px;" /><path d="M 90,190 L 90,180 Q 80,180 80,190" style="stroke-width: 0px;" /><rect x='90' y='180' width='10' height='10' style='stroke-width: 0px;' /><path d="M 105 185 m 0,5 a 5,5 0 1,0 0,-10 L 100,180 L 100,190 L 110,190" style="stroke-width: 0px;" /><circle cx="135" cy="185" r="5" width="10" height="10" style="stroke-width: 0px;" /><rect x='150' y='180' width='10' height='10' style='stroke-width: 0px;' /><circle cx="175" cy="185" r="5" width="10" height="10" style="stroke-width: 0px;" /><path d="M 205 185 m 0,-5 a 5,5 0 1,0 0,10 L 210,190 L 210,180" style="stroke-width: 0px;" /><path d="M 215 185 m 0,5 a 5,5 0 1,0 0,-10 L 210,180 L 210,190 L 220,190" style="stroke-width: 0px;" /><rect x='240' y='180' width='10' height='10' style='stroke-width: 0px;' /><path d="M 265 185 m 0,-5 a 5,5 0 1,0 0,10 L 270,190 L 270,180" style="stroke-width: 0px;" /><path d="M 275 185 m 0,5 a 5,5 0 1,0 0,-10 L 270,180 L 270,190 L 280,190" style="stroke-width: 0px;" /><circle cx="45" cy="195" r="5" width="10" height="10" style="stroke-width: 0px;" /><path d="M 70,200 L 70,190 Q 60,190 60,200" style="stroke-width: 0px;" /><rect x='70' y='190' width='10' height='10' style='stroke-width: 0px;' /><path d="M 80,190 L 80,200 Q 90,200 90,190" style="stroke-width: 0px;" /><path d="M 150,200 L 150,190 Q 140,190 140,200" style="stroke-width: 0px;" /><path d="M 150,190 L 150,200 Q 160,200 160,190" style="stroke-width: 0px;" /><path d="M 190,200 L 190,190 Q 180,190 180,200" style="stroke-width: 0px;" /><path d="M 190,200 L 200,200 Q 200,190 190,190" style="stroke-width: 0px;" /><path d="M 230,200 L 230,190 Q 220,190 220,200" style="stroke-width: 0px;" /><rect x='230' y='190' width='10' height='10' style='stroke-width: 0px;' /><rect x='240' y='190' width='10' height='10' style='stroke-width: 0px;' /><path d="M 285 195 m 5,0 a 5,5 0 1,0 -10, 0 L 280,200 L 290,200" style="stroke-width: 0px;" /><path d="M 70,200 L 60,200 Q 60,210 70,210" style="stroke-width: 0px;" /><path d="M 70,200 L 70,210 Q 80,210 80,200" style="stroke-width: 0px;" /><path d="M 95 205 m 0,-5 a 5,5 0 1,0 0,10 L 100,210 L 100,200" style="stroke-width: 0px;" /><path d="M 105 205 m 0,5 a 5,5 0 1,0 0,-10 L 100,200 L 100,210 L 110,210" style="stroke-width: 0px;" /><path d="M 130,210 L 130,200 Q 120,200 120,210" style="stroke-width: 0px;" /><rect x='130' y='200' width='10' height='10' style='stroke-width: 0px;' /><rect x='140' y='200' width='10' height='10' style='stroke-width: 0px;' /><circle cx="165" cy="205" r="5" width="10" height="10" style="stroke-width: 0px;" /><rect x='180' y='200' width='10' height='10' style='stroke-width: 0px;' /><rect x='190' y='200' width='10' height='10' style='stroke-width: 0px;' /><rect x='200' y='200' width='10' height='10' style='stroke-width: 0px;' /><rect x='210' y='200' width='10' height='10' style='stroke-width: 0px;' /><rect x='220' y='200' width='10' height='10' style='stroke-width: 0px;' /><rect x='230' y='200' width='10' height='10' style='stroke-width: 0px;' /><rect x='240' y='200' width='10' height='10' style='stroke-width: 0px;' /><rect x='250' y='200' width='10' height='10' style='stroke-width: 0px;' /><rect x='260' y='200' width='10' height='10' style='stroke-width: 0px;' /><rect x='270' y='200' width='10' height='10' style='stroke-width: 0px;' /><rect x='280' y='200' width='10' height='10' style='stroke-width: 0px;' /><rect x='120' y='210' width='10' height='10' style='stroke-width: 0px;' /><rect x='130' y='210' width='10' height='10' style='stroke-width: 0px;' /><path d="M 140,210 L 140,220 Q 150,220 150,210" style="stroke-width: 0px;" /><rect x='180' y='210' width='10' height='10' style='stroke-width: 0px;' /><rect x='200' y='210' width='10' height='10' style='stroke-width: 0px;' /><rect x='240' y='210' width='10' height='10' style='stroke-width: 0px;' /><rect x='260' y='210' width='10' height='10' style='stroke-width: 0px;' /><rect x='280' y='210' width='10' height='10' style='stroke-width: 0px;' /><rect x='120' y='220' width='10' height='10' style='stroke-width: 0px;' /><rect x='130' y='220' width='10' height='10' style='stroke-width: 0px;' /><path d="M 180,230 L 180,220 Q 170,220 170,230" style="stroke-width: 0px;" /><rect x='180' y='220' width='10' height='10' style='stroke-width: 0px;' /><rect x='200' y='220' width='10' height='10' style='stroke-width: 0px;' /><circle cx="225" cy="225" r="5" width="10" height="10" style="stroke-width: 0px;" /><rect x='240' y='220' width='10' height='10' style='stroke-width: 0px;' /><path d="M 270,220 L 260,220 Q 260,230 270,230" style="stroke-width: 0px;" /><rect x='270' y='220' width='10' height='10' style='stroke-width: 0px;' /><path d="M 280,220 L 280,230 Q 290,230 290,220" style="stroke-width: 0px;" /><path d="M 130,230 L 120,230 Q 120,240 130,240" style="stroke-width: 0px;" /><rect x='130' y='230' width='10' height='10' style='stroke-width: 0px;' /><circle cx="155" cy="235" r="5" width="10" height="10" style="stroke-width: 0px;" /><rect x='170' y='230' width='10' height='10' style='stroke-width: 0px;' /><rect x='180' y='230' width='10' height='10' style='stroke-width: 0px;' /><rect x='190' y='230' width='10' height='10' style='stroke-width: 0px;' /><rect x='200' y='230' width='10' height='10' style='stroke-width: 0px;' /><rect x='240' y='230' width='10' height='10' style='stroke-width: 0px;' /><path d="M 135 245 m -5, 0 a 5,5 0 1,0 10, 0 L 140,240 L 130,240" style="stroke-width: 0px;" /><path d="M 180,240 L 170,240 Q 170,250 180,250" style="stroke-width: 0px;" /><path d="M 180,240 L 180,250 Q 190,250 190,240" style="stroke-width: 0px;" /><rect x='200' y='240' width='10' height='10' style='stroke-width: 0px;' /><rect x='210' y='240' width='10' height='10' style='stroke-width: 0px;' /><rect x='220' y='240' width='10' height='10' style='stroke-width: 0px;' /><rect x='230' y='240' width='10' height='10' style='stroke-width: 0px;' /><rect x='240' y='240' width='10' height='10' style='stroke-width: 0px;' /><path d="M 250,250 L 260,250 Q 260,240 250,240" style="stroke-width: 0px;" /><path d="M 125 255 m 5,0 a 5,5 0 1,0 -10, 0 L 120,260 L 130,260" style="stroke-width: 0px;" /><path d="M 145 255 m 5,0 a 5,5 0 1,0 -10, 0 L 140,260 L 150,260" style="stroke-width: 0px;" /><path d="M 210,250 L 200,250 Q 200,260 210,260" style="stroke-width: 0px;" /><rect x='210' y='250' width='10' height='10' style='stroke-width: 0px;' /><rect x='220' y='250' width='10' height='10' style='stroke-width: 0px;' /><rect x='240' y='250' width='10' height='10' style='stroke-width: 0px;' /><rect x='250' y='250' width='10' height='10' style='stroke-width: 0px;' /><rect x='260' y='250' width='10' height='10' style='stroke-width: 0px;' /><rect x='270' y='250' width='10' height='10' style='stroke-width: 0px;' /><path d="M 285 255 m 0,5 a 5,5 0 1,0 0,-10 L 280,250 L 280,260 L 290,260" style="stroke-width: 0px;" /><path d="M 125 265 m -5, 0 a 5,5 0 1,0 10, 0 L 130,260 L 120,260" style="stroke-width: 0px;" /><path d="M 145 265 m -5, 0 a 5,5 0 1,0 10, 0 L 150,260 L 140,260" style="stroke-width: 0px;" /><path d="M 185 265 m 5,0 a 5,5 0 1,0 -10, 0 L 180,270 L 190,270" style="stroke-width: 0px;" /><rect x='210' y='260' width='10' height='10' style='stroke-width: 0px;' /><path d="M 220,260 L 220,270 Q 230,270 230,260" style="stroke-width: 0px;" /><rect x='240' y='260' width='10' height='10' style='stroke-width: 0px;' /><rect x='260' y='260' width='10' height='10' style='stroke-width: 0px;' /><path d="M 270,260 L 270,270 Q 280,270 280,260" style="stroke-width: 0px;" /><path d="M 135 275 m 5,0 a 5,5 0 1,0 -10, 0 L 130,280 L 140,280" style="stroke-width: 0px;" /><path d="M 160,280 L 160,270 Q 150,270 150,280" style="stroke-width: 0px;" /><rect x='160' y='270' width='10' height='10' style='stroke-width: 0px;' /><rect x='170' y='270' width='10' height='10' style='stroke-width: 0px;' /><path d="M 180,270 L 180,280 Q 190,280 190,270" style="stroke-width: 0px;" /><rect x='210' y='270' width='10' height='10' style='stroke-width: 0px;' /><rect x='240' y='270' width='10' height='10' style='stroke-width: 0px;' /><rect x='260' y='270' width='10' height='10' style='stroke-width: 0px;' /><path d="M 125 285 m 0,-5 a 5,5 0 1,0 0,10 L 130,290 L 130,280" style="stroke-width: 0px;" /><rect x='130' y='280' width='10' height='10' style='stroke-width: 0px;' /><rect x='140' y='280' width='10' height='10' style='stroke-width: 0px;' /><path d="M 150,280 L 150,290 Q 160,290 160,280" style="stroke-width: 0px;" /><path d="M 220,280 L 210,280 Q 210,290 220,290" style="stroke-width: 0px;" /><rect x='220' y='280' width='10' height='10' style='stroke-width: 0px;' /><rect x='230' y='280' width='10' height='10' style='stroke-width: 0px;' /><rect x='240' y='280' width='10' height='10' style='stroke-width: 0px;' /><rect x='250' y='280' width='10' height='10' style='stroke-width: 0px;' /><rect x='260' y='280' width='10' height='10' style='stroke-width: 0px;' /><rect x='270' y='280' width='10' height='10' style='stroke-width: 0px;' /><path d="M 285 285 m 0,5 a 5,5 0 1,0 0,-10 L 280,280 L 280,290 L 290,290" style="stroke-width: 0px;" /><path d='M 0,25 Q 0,0 25,0 L 45,0 Q 70,0 70,25 L 70,45 Q 70,70 45,70 L 25,70 Q 0,70 0,45 L 0,25 L 10,25 L 10,45 Q 10,60 25,60 L 45,60 Q 60,60 60,45 L 60,25 Q 60,10 45,10 L 25,10 Q 10,10 10,25' style='-webkit-border-horizontal-spacing: 0px; -webkit-border-vertical-spacing: 0px;fill: #000000;stroke: #000000;stroke-width: 0px;' transform='translate(40,40) rotate(0, 35, 35)' /><path d='M 0,25 Q 0,0 25,0 L 45,0 Q 70,0 70,25 L 70,45 Q 70,70 45,70 L 25,70 Q 0,70 0,45 L 0,25 L 10,25 L 10,45 Q 10,60 25,60 L 45,60 Q 60,60 60,45 L 60,25 Q 60,10 45,10 L 25,10 Q 10,10 10,25' style='-webkit-border-horizontal-spacing: 0px; -webkit-border-vertical-spacing: 0px;fill: #000000;stroke: #000000;stroke-width: 0px;' transform='translate(220,40) rotate(90, 35, 35)' /><path d='M 0,25 Q 0,0 25,0 L 45,0 Q 70,0 70,25 L 70,45 Q 70,70 45,70 L 25,70 Q 0,70 0,45 L 0,25 L 10,25 L 10,45 Q 10,60 25,60 L 45,60 Q 60,60 60,45 L 60,25 Q 60,10 45,10 L 25,10 Q 10,10 10,25' style='-webkit-border-horizontal-spacing: 0px; -webkit-border-vertical-spacing: 0px;fill: #000000;stroke: #000000;stroke-width: 0px;' transform='translate(40,220) rotate(270, 35, 35)' /><path d='M 0,10.5 Q 0,0 10.5,0 L 19.5,0 Q 30,0 30,10.5 L 30,19.5 Q 30,30 19.5,30 L 10.5,30 Q 0,30 0,19.5 L 0,10.5' style='-webkit-border-horizontal-spacing: 0px; -webkit-border-vertical-spacing: 0px;fill: #000000;stroke: #000000;stroke-width: 0px;' transform='translate(60,60) rotate(0, 15, 15)' /><path d='M 0,10.5 Q 0,0 10.5,0 L 19.5,0 Q 30,0 30,10.5 L 30,19.5 Q 30,30 19.5,30 L 10.5,30 Q 0,30 0,19.5 L 0,10.5' style='-webkit-border-horizontal-spacing: 0px; -webkit-border-vertical-spacing: 0px;fill: #000000;stroke: #000000;stroke-width: 0px;' transform='translate(240,60) rotate(90, 15, 15)' /><path d='M 0,10.5 Q 0,0 10.5,0 L 19.5,0 Q 30,0 30,10.5 L 30,19.5 Q 30,30 19.5,30 L 10.5,30 Q 0,30 0,19.5 L 0,10.5' style='-webkit-border-horizontal-spacing: 0px; -webkit-border-vertical-spacing: 0px;fill: #000000;stroke: #000000;stroke-width: 0px;' transform='translate(60,240) rotate(270, 15, 15)' /></g></svg>